<svg xmlns="http://www.w3.org/2000/svg" viewBox="0 0 1600 900" role="img" aria-labelledby="title desc">
  <title id="title">Quadra da Sequência horizontal com profundidade</title>
  <desc id="desc">Quadra futurista de vôlei horizontal, com fundo comprimido e primeiro plano ampliado em perspectiva 2.5D.</desc>
  <defs>
    <clipPath id="courtClip">
      <polygon points="288,198 1312,198 1536,783 64,783"/>
    </clipPath>
    <linearGradient id="arena" x1="0" y1="0" x2="0" y2="1">
      <stop offset="0" stop-color="#07131b"/>
      <stop offset=".7" stop-color="#040a10"/>
      <stop offset="1" stop-color="#02060b"/>
    </linearGradient>
    <linearGradient id="floor" x1="0" y1="0" x2="0" y2="1">
      <stop offset="0" stop-color="#0b1b23"/>
      <stop offset=".48" stop-color="#0b2028"/>
      <stop offset="1" stop-color="#102b34"/>
    </linearGradient>
    <linearGradient id="rival" x1="0" y1="0" x2="1" y2="0">
      <stop offset="0" stop-color="#5a1c29" stop-opacity=".74"/>
      <stop offset="1" stop-color="#25151d" stop-opacity=".30"/>
    </linearGradient>
    <linearGradient id="voltz" x1="1" y1="0" x2="0" y2="0">
      <stop offset="0" stop-color="#0d4c40" stop-opacity=".78"/>
      <stop offset="1" stop-color="#12332f" stop-opacity=".32"/>
    </linearGradient>
    <linearGradient id="nearFace" x1="0" y1="0" x2="0" y2="1">
      <stop offset="0" stop-color="#1a3a43"/>
      <stop offset="1" stop-color="#050b10"/>
    </linearGradient>
    <radialGradient id="nearLight" cx="50%" cy="100%" r="76%">
      <stop offset="0" stop-color="#b6ffeb" stop-opacity=".14"/>
      <stop offset=".58" stop-color="#62d9c3" stop-opacity=".03"/>
      <stop offset="1" stop-color="#000" stop-opacity="0"/>
    </radialGradient>
    <filter id="glow" x="-30%" y="-30%" width="160%" height="160%">
      <feGaussianBlur stdDeviation="5" result="b"/>
      <feMerge><feMergeNode in="b"/><feMergeNode in="SourceGraphic"/></feMerge>
    </filter>
    <filter id="shadow" x="-20%" y="-20%" width="150%" height="160%">
      <feGaussianBlur in="SourceAlpha" stdDeviation="16"/>
      <feOffset dx="0" dy="22" result="o"/>
      <feColorMatrix in="o" type="matrix" values="0 0 0 0 0 0 0 0 0 0 0 0 0 0 0 0 0 0 .58 0"/>
      <feMerge><feMergeNode/><feMergeNode in="SourceGraphic"/></feMerge>
    </filter>
  </defs>

  <rect width="1600" height="900" rx="48" fill="url(#arena)"/>
  <g opacity=".22" fill="none" stroke="#9fe8df" stroke-width="2">
    <path d="M0 824H1600M0 862H1600"/>
    <path d="M190 88H1410M120 125H1480" stroke-opacity=".18"/>
  </g>

  <!-- Plataforma elevada: profundidade sem inclinar o eixo da partida. -->
  <path d="M64 783H1536V812H64Z" fill="url(#nearFace)" stroke="#78d9ca" stroke-opacity=".22" stroke-width="3"/>
  <path d="M288 198L64 783V812L288 225Z" fill="#071118" stroke="#ff7787" stroke-opacity=".16" stroke-width="3"/>
  <path d="M1312 198L1536 783V812L1312 225Z" fill="#071218" stroke="#72f2c5" stroke-opacity=".18" stroke-width="3"/>

  <g filter="url(#shadow)">
    <polygon points="288,198 1312,198 1536,783 64,783" fill="url(#floor)"/>
    <g clip-path="url(#courtClip)">
      <polygon points="288,198 800,198 800,783 64,783" fill="url(#rival)"/>
      <polygon points="800,198 1312,198 1536,783 800,783" fill="url(#voltz)"/>
      <polygon points="288,198 1312,198 1536,783 64,783" fill="url(#nearLight)"/>

      <!-- Grade convergente: horizontais continuam horizontais. -->
      <g fill="none" stroke="#dcfff7" stroke-opacity=".055" stroke-width="2">
        <path d="M390 198L211 783"/><path d="M493 198L358 783"/>
        <path d="M595 198L506 783"/><path d="M698 198L653 783"/>
        <path d="M902 198L947 783"/><path d="M1005 198L1094 783"/>
        <path d="M1107 198L1242 783"/><path d="M1210 198L1389 783"/>
        <path d="M248 303H1352"/><path d="M198 432H1402"/>
        <path d="M142 578H1458"/><path d="M100 689H1500"/>
      </g>

      <g fill="none" stroke="#d9fff5" stroke-width="3">
        <path d="M248 303H1352" stroke-opacity=".08"/>
        <path d="M198 432H1402" stroke-opacity=".09"/>
        <path d="M142 578H1458" stroke-opacity=".11"/>
        <path d="M100 689H1500" stroke-opacity=".14"/>
      </g>

      <!-- Rede e linhas de ataque preservam o eixo vertical central. -->
      <g fill="none" stroke-width="4" stroke-dasharray="14 13">
        <path d="M636 198L564 783" stroke="#ff9ca7" stroke-opacity=".56"/>
        <path d="M964 198L1036 783" stroke="#8affcf" stroke-opacity=".59"/>
      </g>
      <path d="M800 198V783" stroke="#eaffff" stroke-opacity=".18" stroke-width="34"/>
      <path d="M800 198V783" stroke="#f4ffff" stroke-opacity=".42" stroke-width="3"/>

      <g fill="none" stroke-width="3">
        <path d="M240 390H378L414 416H548" stroke="#ff7d8b" stroke-opacity=".21"/>
        <path d="M180 628H350L395 600H530" stroke="#ff7d8b" stroke-opacity=".18"/>
        <path d="M1360 390H1222L1186 416H1052" stroke="#63f5b5" stroke-opacity=".22"/>
        <path d="M1420 628H1250L1205 600H1070" stroke="#63f5b5" stroke-opacity=".20"/>
      </g>
      <g fill="#eafff8" fill-opacity=".3">
        <circle cx="240" cy="390" r="5"/><circle cx="548" cy="416" r="5"/>
        <circle cx="1360" cy="390" r="5"/><circle cx="1052" cy="416" r="5"/>
      </g>

      <g transform="translate(290 570)" opacity=".09" fill="none" stroke="#ff91a0" stroke-width="10">
        <path d="M0 58L62 0L124 58L62 116Z"/><path d="M34 58H91"/>
      </g>
      <path d="M1220 548L1145 650H1200L1160 722L1290 596H1232L1270 548Z"
            fill="#8affcf" fill-opacity=".08" stroke="#9affd9" stroke-opacity=".16" stroke-width="4"/>
    </g>

    <polygon points="288,198 1312,198 1536,783 64,783" fill="none" stroke="#d9fff5" stroke-opacity=".58" stroke-width="6" filter="url(#glow)"/>
    <polygon points="303,216 1297,216 1508,762 92,762" fill="none" stroke="#effffb" stroke-opacity=".14" stroke-width="2"/>
  </g>

  <g filter="url(#glow)">
    <path d="M288 198L64 783" stroke="#ff6b7a" stroke-opacity=".34" stroke-width="8"/>
    <path d="M1312 198L1536 783" stroke="#63f5b5" stroke-opacity=".37" stroke-width="8"/>
    <circle cx="64" cy="783" r="9" fill="#ff8290" fill-opacity=".65"/>
    <circle cx="1536" cy="783" r="9" fill="#7dffd0" fill-opacity=".7"/>
  </g>
</svg>

